HIERARCHY
ROOT Hips
{
	OFFSET 0.000000 0.000000 0.000000
	CHANNELS 6 Xposition Yposition Zposition Xrotation Yrotation Zrotation
	JOINT LeftUpLeg_virtual
	{
		OFFSET 0.000000 0.000000 0.000000
		CHANNELS 3 Xrotation Yrotation Zrotation
		JOINT LeftUpLeg
		{
			OFFSET 11.394100 -6.187798 -0.413800
			CHANNELS 3 Xrotation Yrotation Zrotation
			JOINT LeftLeg
			{
				OFFSET 0.430247 -32.302673 3.732800
				CHANNELS 3 Xrotation Yrotation Zrotation
				JOINT LeftFoot
				{
					OFFSET -0.430247 -48.264931 -6.423300
					CHANNELS 3 Xrotation Yrotation Zrotation
					JOINT LeftToeBase
					{
						OFFSET 4.230900 -16.068199 23.438400
						CHANNELS 3 Xrotation Yrotation Zrotation
						JOINT LeftToe_End
						{
							OFFSET 4.510700 0.695400 19.974600
							CHANNELS 3 Xrotation Yrotation Zrotation
							End Site
							{
								OFFSET 0 0 0
							}
						}
					}
				}
			}
		}
	}
	JOINT RightUpLeg_virtual
	{
		OFFSET 0.000000 0.000000 0.000000
		CHANNELS 3 Xrotation Yrotation Zrotation
		JOINT RightUpLeg
		{
			OFFSET -11.333700 -6.187798 -0.413800
			CHANNELS 3 Xrotation Yrotation Zrotation
			JOINT RightLeg
			{
				OFFSET -0.430392 -32.302628 3.733000
				CHANNELS 3 Xrotation Yrotation Zrotation
				JOINT RightFoot
				{
					OFFSET 0.430392 -48.264973 -6.423500
					CHANNELS 3 Xrotation Yrotation Zrotation
					JOINT RightToeBase
					{
						OFFSET -4.230900 -16.068199 23.438400
						CHANNELS 3 Xrotation Yrotation Zrotation
						JOINT RightToe_End
						{
							OFFSET -4.510700 0.695400 19.974600
							CHANNELS 3 Xrotation Yrotation Zrotation
							End Site
							{
								OFFSET 0 0 0
							}
						}
					}
				}
			}
		}
	}
	JOINT Spine_virtual
	{
		OFFSET 0.000000 0.000000 0.000000
		CHANNELS 3 Xrotation Yrotation Zrotation
		JOINT Spine
		{
			OFFSET -0.002400 12.777504 0.315300
			CHANNELS 3 Xrotation Yrotation Zrotation
			JOINT Spine1
			{
				OFFSET -0.002067 5.816869 0.032633
				CHANNELS 3 Xrotation Yrotation Zrotation
				JOINT Spine1_split
				{
					OFFSET -0.002067 5.816869 0.032633
					CHANNELS 3 Xrotation Yrotation Zrotation
					JOINT Spine2
					{
						OFFSET -0.002067 5.816869 0.032633
						CHANNELS 3 Xrotation Yrotation Zrotation
						JOINT Neck_virtual
						{
							OFFSET 0.000000 0.000000 0.000000
							CHANNELS 3 Xrotation Yrotation Zrotation
							JOINT Neck
							{
								OFFSET -0.003700 21.199493 -0.826900
								CHANNELS 3 Xrotation Yrotation Zrotation
								JOINT Head
								{
									OFFSET 0.000000 20.442200 4.834800
									CHANNELS 3 Xrotation Yrotation Zrotation
									JOINT HeadTop_End
									{
										OFFSET 0.000000 34.668396 4.968400
										CHANNELS 3 Xrotation Yrotation Zrotation
										End Site
										{
											OFFSET 0 0 0
										}
									}
								}
							}
						}
						JOINT LeftShoulder_virtual
						{
							OFFSET 0.000000 0.000000 0.000000
							CHANNELS 3 Xrotation Yrotation Zrotation
							JOINT LeftShoulder
							{
								OFFSET 3.288150 8.794197 -1.372250
								CHANNELS 3 Xrotation Yrotation Zrotation
								JOINT LeftShoulder_split
								{
									OFFSET 3.288150 8.794197 -1.372250
									CHANNELS 3 Xrotation Yrotation Zrotation
									JOINT LeftArm
									{
										OFFSET 11.953299 -2.279007 -0.146200
										CHANNELS 3 Xrotation Yrotation Zrotation
										JOINT LeftForeArm
										{
											OFFSET 18.448900 0.000000 0.000000
											CHANNELS 3 Xrotation Yrotation Zrotation
											JOINT LeftHand
											{
												OFFSET 29.527798 0.000000 0.000000
												CHANNELS 3 Xrotation Yrotation Zrotation
												End Site
												{
													OFFSET 0 0 0
												}
											}
										}
									}
								}
							}
						}
						JOINT RightShoulder_virtual
						{
							OFFSET 0.000000 0.000000 0.000000
							CHANNELS 3 Xrotation Yrotation Zrotation
							JOINT RightShoulder
							{
								OFFSET -3.249400 8.794197 -1.372250
								CHANNELS 3 Xrotation Yrotation Zrotation
								JOINT RightShoulder_split
								{
									OFFSET -3.249400 8.794197 -1.372250
									CHANNELS 3 Xrotation Yrotation Zrotation
									JOINT RightArm
									{
										OFFSET -11.953299 -2.279007 -0.146200
										CHANNELS 3 Xrotation Yrotation Zrotation
										JOINT RightForeArm
										{
											OFFSET -18.448900 0.000000 0.000000
											CHANNELS 3 Xrotation Yrotation Zrotation
											JOINT RightHand
											{
												OFFSET -29.527802 0.000000 0.000000
												CHANNELS 3 Xrotation Yrotation Zrotation
												End Site
												{
													OFFSET 0 0 0
												}
											}
										}
									}
								}
							}
						}
					}
				}
			}
		}
	}
}
MOTION
Frames: 10
Frame Time: 0.03333333
7.727579 100.741760 -5.545181 0.000000 0.000000 0.000000 -1.046189 -19.758639 -1.509324 -11.279909 5.555782 1.139399 20.883440 9.925053 1.821309 -7.029168 18.539101 -1.621736 -3.613209 0.079256 -0.668608 0.000000 0.000000 0.000000 -0.524282 -19.425499 -1.636522 -22.181306 -9.200489 -10.513052 17.543640 0.588858 -1.514285 0.477310 -2.548323 5.834213 -7.311618 0.319641 0.803705 0.000000 0.000000 0.000000 -0.875553 -20.136670 -2.548546 4.809732 1.383841 -1.462426 0.607114 0.352240 0.124499 0.914478 0.158202 0.231775 0.000000 0.000000 0.000000 0.736273 0.529710 -0.165444 -0.604257 -0.061340 2.680603 12.857304 9.902183 7.637849 0.000000 0.000000 0.000000 0.308033 0.454511 -0.062310 1.893803 -3.537565 -11.405217 -0.533296 -0.574710 -1.995834 -5.924942 -18.495442 -55.901236 0.072323 -12.457705 0.757728 0.000000 0.000000 0.000000 0.282561 0.483995 0.028406 2.940298 -2.042606 16.426808 -1.928191 1.984808 -2.665854 6.659287 1.339132 65.344591 1.352184 18.084085 1.450733 0.000000 0.000000 0.000000 
8.171452 100.752975 -5.329096 0.000000 0.000000 0.000000 -0.958163 -20.634580 -1.641026 -11.178793 5.601181 0.907903 20.853802 9.993840 1.791449 -7.351743 19.229742 -1.434836 -3.658952 0.091306 -0.631848 0.000000 0.000000 0.000000 -0.444960 -20.233797 -1.759656 -22.282138 -9.222220 -10.448116 17.255809 0.698969 -1.581160 0.433607 -2.402258 5.657658 -7.198241 0.314221 0.780533 0.000000 0.000000 0.000000 -0.812947 -20.963799 -2.689994 4.548147 0.951728 -1.615989 0.566264 0.257994 0.108696 0.951212 0.165141 0.230981 0.000000 0.000000 0.000000 0.680644 0.421578 -0.183968 -0.622672 -0.058005 2.821878 13.032903 10.744222 8.107871 0.000000 0.000000 0.000000 0.251623 0.354207 -0.085362 1.826688 -3.770740 -11.381075 -0.633449 -0.512649 -1.991252 -6.266912 -19.916314 -56.163320 0.009896 -13.016328 0.748182 0.000000 0.000000 0.000000 0.238902 0.383570 -0.013825 2.980892 -2.495239 16.691405 -1.976346 1.849449 -2.705623 6.289367 1.899075 65.916441 1.389761 18.535566 1.415604 0.000000 0.000000 0.000000 
8.573118 100.773186 -5.109625 0.000000 0.000000 0.000000 -0.838181 -21.475802 -1.777177 -11.123273 5.634426 0.730891 20.838403 10.052275 1.776397 -7.632000 19.881531 -1.250309 -3.716715 0.103491 -0.594889 0.000000 0.000000 0.000000 -0.333276 -21.014269 -1.891343 -22.320693 -9.237250 -10.330877 16.843149 0.726936 -1.661367 0.450841 -2.274545 5.439306 -7.010972 0.314013 0.764943 0.000000 0.000000 0.000000 -0.719771 -21.766047 -2.830607 4.313238 0.488216 -1.802817 0.531120 0.163207 0.073530 0.987057 0.185872 0.232991 0.000000 0.000000 0.000000 0.633805 0.310831 -0.217770 -0.631087 -0.059610 2.975426 13.190628 11.510951 8.650709 0.000000 0.000000 0.000000 0.206353 0.254288 -0.122266 1.740189 -4.059184 -11.301043 -0.717135 -0.454634 -1.985013 -6.445413 -21.491554 -56.410946 -0.018889 -13.883257 0.755073 0.000000 0.000000 0.000000 0.216452 0.281262 -0.078232 3.018642 -2.963271 17.009626 -2.053013 1.689894 -2.713561 5.805907 2.533552 66.402874 1.429762 18.986309 1.390362 0.000000 0.000000 0.000000 
8.921648 100.806793 -4.893049 0.000000 0.000000 0.000000 -0.661086 -22.244365 -1.898443 -11.124007 5.652018 0.602391 20.820278 10.103212 1.781583 -7.847874 20.485127 -1.064580 -3.783325 0.115910 -0.566151 0.000000 0.000000 0.000000 -0.168810 -21.735276 -2.016564 -22.296596 -9.217345 -10.190101 16.301520 0.684817 -1.754750 0.619843 -2.164919 5.264553 -6.889562 0.316220 0.753685 0.000000 0.000000 0.000000 -0.569112 -22.501192 -2.951445 4.090123 -0.008752 -2.041250 0.495875 0.065569 0.013131 1.003215 0.201482 0.255887 0.000000 0.000000 0.000000 0.592637 0.196540 -0.272410 -0.636758 -0.063733 3.151210 13.345717 12.196170 9.247086 0.000000 0.000000 0.000000 0.168773 0.154074 -0.177882 1.632816 -4.386758 -11.147153 -0.779950 -0.397701 -1.970030 -6.465632 -23.195708 -56.678030 -0.006858 -15.149976 0.773316 0.000000 0.000000 0.000000 0.208119 0.175335 -0.169129 3.055246 -3.451761 17.368232 -2.154904 1.513606 -2.702352 5.277986 3.211360 66.789729 1.466532 19.409987 1.388484 0.000000 0.000000 0.000000 
9.215446 100.856926 -4.674301 0.000000 0.000000 0.000000 -0.415902 -22.905934 -2.002389 -11.212633 5.659531 0.524510 20.785451 10.143739 1.809033 -7.998420 21.020874 -0.894213 -3.828400 0.126967 -0.555793 0.000000 0.000000 0.000000 0.064959 -22.376593 -2.127135 -22.218747 -9.147200 -10.031143 15.639209 0.582913 -1.859932 0.946159 -2.077313 5.188090 -6.890466 0.316644 0.747422 0.000000 0.000000 0.000000 -0.347170 -23.142506 -3.048433 3.864534 -0.536342 -2.346555 0.454629 -0.038551 -0.069551 1.020460 0.219820 0.300198 0.000000 0.000000 0.000000 0.556086 0.077580 -0.347946 -0.656423 -0.071779 3.356699 13.503731 12.794814 9.883552 0.000000 0.000000 0.000000 0.134207 0.050309 -0.250345 1.509130 -4.740984 -10.904259 -0.822544 -0.330486 -1.965135 -6.363600 -24.951977 -56.980836 0.042562 -16.781935 0.788235 0.000000 0.000000 0.000000 0.204972 0.062461 -0.282730 3.094899 -3.959303 17.747080 -2.258076 1.331700 -2.681494 4.781139 3.902493 67.090216 1.500881 19.829463 1.413307 0.000000 0.000000 0.000000 
9.458839 100.917061 -4.458609 0.000000 0.000000 0.000000 -0.099882 -23.452657 -2.091687 -11.403820 5.657555 0.499956 20.751846 10.161703 1.853871 -8.078189 21.467655 -0.781484 -3.841617 0.136528 -0.559670 0.000000 0.000000 0.000000 0.361416 -22.912004 -2.227604 -22.087432 -9.018908 -9.848346 14.900218 0.425279 -1.970687 1.354849 -2.008254 5.201591 -6.954268 0.315346 0.752328 0.000000 0.000000 0.000000 -0.049056 -23.677751 -3.123755 3.635843 -1.083310 -2.726258 0.404138 -0.151405 -0.166888 1.027387 0.233431 0.339280 0.000000 0.000000 0.000000 0.523047 -0.046507 -0.436771 -0.694752 -0.083922 3.595196 13.665053 13.290253 10.549352 0.000000 0.000000 0.000000 0.100863 -0.059567 -0.334130 1.376966 -5.112839 -10.584940 -0.851436 -0.238233 -1.962978 -6.155042 -26.665713 -57.316250 0.108263 -18.649097 0.789286 0.000000 0.000000 0.000000 0.202752 -0.059036 -0.409944 3.140947 -4.473112 18.120816 -2.340623 1.166685 -2.657160 4.383814 4.585790 67.328706 1.537845 20.276018 1.460328 0.000000 0.000000 0.000000 
9.658260 100.984032 -4.254948 0.000000 0.000000 0.000000 0.271651 -23.891006 -2.175509 -11.723172 5.646190 0.530092 20.764463 10.151276 1.907034 -8.091841 21.820252 -0.753117 -3.835013 0.147240 -0.566183 0.000000 0.000000 0.000000 0.707328 -23.338499 -2.324797 -21.906865 -8.843812 -9.630075 14.164938 0.189672 -2.081644 1.752077 -1.971254 5.234045 -6.960899 0.314431 0.786545 0.000000 0.000000 0.000000 0.309518 -24.111215 -3.194170 3.412290 -1.626081 -3.180102 0.348251 -0.269881 -0.266024 1.023469 0.230949 0.383635 0.000000 0.000000 0.000000 0.489842 -0.172420 -0.528292 -0.755319 -0.102542 3.859508 13.823546 13.671588 11.239390 0.000000 0.000000 0.000000 0.074369 -0.175207 -0.419788 1.244803 -5.489946 -10.202485 -0.901855 -0.145908 -1.966600 -5.880898 -28.207670 -57.658367 0.157400 -20.579365 0.769345 0.000000 0.000000 0.000000 0.199270 -0.186667 -0.536186 3.190845 -4.973563 18.464052 -2.407264 1.027735 -2.633039 4.115931 5.249968 67.525777 1.579508 20.763176 1.516748 0.000000 0.000000 0.000000 
9.822868 101.049850 -4.064322 0.000000 0.000000 0.000000 0.674275 -24.237698 -2.269745 -12.147457 5.634281 0.608610 20.847202 10.133281 1.968000 -8.093871 22.092768 -0.778028 -3.817255 0.158549 -0.563620 0.000000 0.000000 0.000000 1.081635 -23.677605 -2.432680 -21.707396 -8.640163 -9.369361 13.469768 -0.125501 -2.186662 2.087873 -1.965684 5.258372 -6.877957 0.316446 0.847403 0.000000 0.000000 0.000000 0.709945 -24.463154 -3.276886 3.220897 -2.133756 -3.697579 0.292310 -0.386105 -0.356718 1.024879 0.223855 0.390576 0.000000 0.000000 0.000000 0.456665 -0.293350 -0.612490 -0.835950 -0.128019 4.137643 13.969556 13.932407 11.935867 0.000000 0.000000 0.000000 0.057237 -0.290641 -0.499187 1.123781 -5.862624 -9.795503 -0.967780 -0.051688 -1.980372 -5.595100 -29.489629 -57.978744 0.178160 -22.410950 0.735908 0.000000 0.000000 0.000000 0.198489 -0.310424 -0.649041 3.242130 -5.437449 18.758257 -2.461738 0.924385 -2.607010 3.976974 5.861924 67.693868 1.629981 21.288036 1.568006 0.000000 0.000000 0.000000 
9.955387 101.102715 -3.895372 0.000000 0.000000 0.000000 1.088663 -24.510501 -2.379884 -12.650899 5.629690 0.716410 21.010010 10.131177 2.036704 -8.138132 22.310629 -0.808999 -3.806515 0.170219 -0.545242 0.000000 0.000000 0.000000 1.466299 -23.950910 -2.558494 -21.519356 -8.417669 -9.080853 12.825897 -0.499563 -2.290914 2.353806 -1.963838 5.305264 -6.798695 0.321887 0.919779 0.000000 0.000000 0.000000 1.130994 -24.746142 -3.379291 3.094628 -2.567722 -4.263071 0.247425 -0.486071 -0.434342 1.015014 0.232396 0.380517 0.000000 0.000000 0.000000 0.422244 -0.397639 -0.684932 -0.926869 -0.163380 4.405905 14.096679 14.079062 12.611663 0.000000 0.000000 0.000000 0.054802 -0.392676 -0.569107 1.018380 -6.216627 -9.410366 -1.052902 0.014300 -1.980547 -5.309563 -30.452084 -58.240169 0.178611 -24.075860 0.706525 0.000000 0.000000 0.000000 0.202576 -0.416398 -0.743533 3.287474 -5.842546 18.995166 -2.502058 0.852223 -2.583445 3.946872 6.390149 67.834201 1.683705 21.805480 1.603388 0.000000 0.000000 0.000000 
10.064583 101.145828 -3.748835 0.000000 0.000000 0.000000 1.503719 -24.727409 -2.504865 -13.213525 5.639001 0.842250 21.233754 10.149031 2.113951 -8.251393 22.491379 -0.822327 -3.824151 0.181595 -0.507614 0.000000 0.000000 0.000000 1.854908 -24.188557 -2.700519 -21.345536 -8.192564 -8.771203 12.236697 -0.923432 -2.400198 2.559643 -1.964007 5.387072 -6.803907 0.326147 0.991207 0.000000 0.000000 0.000000 1.558186 -24.986637 -3.500070 3.060670 -2.895378 -4.854586 0.218272 -0.554548 -0.502604 1.015057 0.260902 0.360982 0.000000 0.000000 0.000000 0.389153 -0.471793 -0.750238 -1.021817 -0.206659 4.639737 14.197765 14.126177 13.237508 0.000000 0.000000 0.000000 0.067872 -0.467419 -0.632228 0.930938 -6.540880 -9.079010 -1.151709 0.077682 -1.969264 -5.061169 -31.077200 -58.416163 0.174478 -25.549374 0.699355 0.000000 0.000000 0.000000 0.216512 -0.488610 -0.821460 3.322814 -6.176389 19.171431 -2.540824 0.800068 -2.555943 3.999639 6.795293 67.943539 1.737193 22.272991 1.613605 0.000000 0.000000 0.000000 
